<svg width="256" height="256" viewBox="0 0 256 256" fill="none" xmlns="http://www.w3.org/2000/svg">
<rect width="256" height="256" fill="white"/>
<path fill-rule="evenodd" clip-rule="evenodd" d="M206 50H50V206H116.892L88.6575 100.627L123.62 91.2592C132.612 88.8498 141.026 88.3072 148.862 89.6312C156.667 90.837 163.33 93.9338 168.852 98.9217C174.459 103.76 178.436 110.556 180.782 119.312C182.145 124.399 182.724 129.634 182.517 135.015C182.311 140.396 181.031 145.558 178.677 150.5C176.737 154.764 173.749 158.686 169.714 162.268L206 196.018V50ZM188.744 206L151.43 171.996C150.373 172.326 149.286 172.641 148.169 172.941L129.18 178.029L136.674 206H188.744ZM157.275 147.295C154.392 150.73 149.637 153.336 143.011 155.111L124.377 160.104L111.918 113.606L131.617 108.328C136.113 107.123 140.105 106.878 143.594 107.592C147.05 108.187 149.999 109.49 152.439 111.499C154.966 113.358 157.008 115.537 158.566 118.036C160.092 120.417 161.171 122.791 161.805 125.157C162.661 128.352 162.871 131.973 162.434 136.021C161.965 139.951 160.246 143.709 157.275 147.295Z" fill="url(#paint0_linear_3_57)"/>
<defs>
<linearGradient id="paint0_linear_3_57" x1="43.5" y1="44.8" x2="212.067" y2="212.067" gradientUnits="userSpaceOnUse">
<stop stop-color="#3991E2"/>
<stop offset="0.540799" stop-color="#602CA3"/>
<stop offset="1" stop-color="#5B135D"/>
</linearGradient>
</defs>
</svg>
