<svg width="256" height="256" viewBox="0 0 256 256" fill="none" xmlns="http://www.w3.org/2000/svg">
<g clip-path="url(#clip0_3_41)">
<path fill-rule="evenodd" clip-rule="evenodd" d="M256 0H0V256H109.772L63.4379 83.0807L120.812 67.7075C135.568 63.7536 149.376 62.8631 162.236 65.0359C175.044 67.0146 185.978 72.0965 195.038 80.2818C204.241 88.2209 210.767 99.3743 214.617 113.742C216.854 122.091 217.803 130.681 217.464 139.512C217.125 148.343 215.025 156.813 211.163 164.923C207.978 171.92 203.075 178.357 196.453 184.235L256 239.62V0ZM227.683 256L166.449 200.198C164.715 200.741 162.932 201.258 161.098 201.749L129.936 210.099L142.235 256H227.683ZM176.042 159.663C171.309 165.301 163.507 169.577 152.634 172.49L122.054 180.684L101.608 104.38L133.936 95.7178C141.314 93.7409 147.865 93.3381 153.589 94.5095C159.262 95.4868 164.1 97.6239 168.105 100.921C172.252 103.972 175.604 107.548 178.159 111.649C180.663 115.557 182.435 119.452 183.476 123.335C184.88 128.577 185.224 134.52 184.507 141.163C183.738 147.612 180.916 153.779 176.042 159.663Z" fill="url(#paint0_linear_3_41)"/>
</g>
<defs>
<linearGradient id="paint0_linear_3_41" x1="-10.6667" y1="-8.53333" x2="265.956" y2="265.956" gradientUnits="userSpaceOnUse">
<stop stop-color="#3991E2"/>
<stop offset="0.540799" stop-color="#602CA3"/>
<stop offset="1" stop-color="#5B135D"/>
</linearGradient>
<clipPath id="clip0_3_41">
<rect width="256" height="256" fill="white"/>
</clipPath>
</defs>
</svg>
